<svg width="88" height="88" viewBox="0 0 88 88" fill="none" xmlns="http://www.w3.org/2000/svg">
<path fill-rule="evenodd" clip-rule="evenodd" d="M36.2848 20.154C35.5631 20.3666 34.9891 20.8954 34.9241 21.4073C34.8966 21.623 34.9871 22.6484 35.125 23.6859C35.3886 25.6688 35.3741 25.9553 34.9993 26.1559C34.6765 26.3286 34.2545 26.2776 34.0333 26.0393C33.8654 25.8585 33.7896 25.5184 33.6129 24.1522C33.4943 23.2356 33.3873 22.4744 33.3753 22.4607C33.3192 22.3969 32.1346 23.2421 31.6243 23.7098C30.6046 24.6446 29.7283 25.9586 29.2983 27.1977C29.1157 27.7238 28.8121 28.9787 28.8121 29.2072C28.8121 29.26 29.4361 29.2989 30.2825 29.2989H31.753V27.6946C31.753 26.22 31.7695 26.0694 31.9562 25.832C32.2291 25.485 32.7435 25.477 33.0809 25.8143C33.317 26.0504 33.3215 26.0855 33.3215 27.6769V29.2989H37.5859H41.8503V27.7745C41.8503 25.8538 41.9615 25.5737 42.7235 25.5737C42.878 25.5737 43.0833 25.6703 43.2057 25.8005C43.407 26.0148 43.4188 26.1186 43.4188 27.6631V29.2989H44.8893H46.3598V29.0695C46.3598 28.7083 46.0099 27.4331 45.7212 26.7423C45.3195 25.7808 44.4951 24.6129 43.6461 23.8025C42.7854 22.9808 41.8682 22.3608 41.8059 22.5584C41.7846 22.6262 41.6936 23.2993 41.6037 24.0542C41.4146 25.6423 41.316 26.0281 41.0647 26.1626C40.7665 26.3221 40.2967 26.2748 40.0858 26.0638C39.8354 25.8134 39.8355 25.4495 40.0864 23.5778C40.1939 22.7767 40.2818 21.9217 40.2818 21.6778C40.2818 20.8837 39.8118 20.3982 38.7766 20.1225C38.1183 19.9472 36.9357 19.9621 36.2848 20.154ZM28.0543 31.0128C27.6769 31.1768 27.3423 31.6843 27.3423 32.0928C27.3423 32.2545 27.4284 32.5282 27.5337 32.7007C27.9353 33.3595 27.324 33.3238 37.7385 33.2952L47.1592 33.2692L47.4947 32.903C47.77 32.6027 47.8303 32.4596 47.8303 32.1075C47.8303 31.6234 47.5928 31.2465 47.1402 31.0125C46.7306 30.8006 28.5417 30.8008 28.0543 31.0128ZM29.7381 35.2638C30.2917 36.8328 31.6512 38.499 33.13 39.4207C34.5202 40.2871 35.9263 40.6857 37.593 40.6857C40.4588 40.6857 42.99 39.3444 44.5399 37.0046C44.9736 36.3498 45.5755 35.149 45.5755 34.9387C45.5755 34.9101 41.9822 34.8867 37.5902 34.8867H29.605L29.7381 35.2638ZM55.7572 41.396C55.482 41.4693 54.9593 41.771 54.4337 42.1601C53.1814 43.0871 53.1061 43.1156 51.6293 43.2212C50.5934 43.2952 50.2465 43.3589 49.8914 43.5403C49.2825 43.8512 48.8767 44.4803 48.6633 45.4442C48.3375 46.9147 48.1841 47.1983 47.1351 48.2686C46.0806 49.3445 45.8696 49.7163 45.8696 50.4992C45.8696 50.9363 45.965 51.2185 46.4578 52.2384C47.1108 53.5899 47.1151 53.6176 46.9295 55.2873C46.7879 56.5601 46.879 56.9631 47.4474 57.5798C47.7375 57.8945 48.0748 58.103 48.7885 58.409C50.1767 59.004 50.3835 59.1688 51.0978 60.2496C51.7783 61.2794 52.0145 61.5364 52.5096 61.7867C53.1221 62.0962 53.5762 62.0802 54.8379 61.7048C55.4839 61.5126 56.1517 61.3554 56.3219 61.3554C56.492 61.3554 57.0222 61.4707 57.5 61.6118C58.8404 62.0075 59.1213 62.0597 59.5596 61.9948C60.2409 61.8938 60.7637 61.4619 61.4035 60.4713C62.1447 59.3236 62.58 58.9531 63.8048 58.4272C64.973 57.9258 65.2847 57.6889 65.5808 57.0772C65.7854 56.6543 65.7937 56.5575 65.7155 55.4865C65.5713 53.5084 65.5751 53.4823 66.1798 52.2247C66.8437 50.844 66.9097 50.5382 66.6995 49.8153C66.5576 49.3274 66.4341 49.1647 65.6059 48.3745C65.0924 47.8847 64.5893 47.322 64.488 47.1241C64.3867 46.9264 64.1933 46.2969 64.0583 45.7255C63.7826 44.5587 63.655 44.2667 63.2546 43.8863C62.8029 43.4573 62.2977 43.3066 61.0048 43.2149C60.3444 43.1682 59.6576 43.068 59.4786 42.9924C59.2994 42.9167 58.7933 42.5873 58.3536 42.2603C57.914 41.9332 57.4287 41.6023 57.2753 41.5248C56.8523 41.3114 56.2631 41.2614 55.7572 41.396ZM35.8027 41.8429C28.6421 42.6665 22.8707 47.9125 21.3594 54.9715C21.143 55.9819 21.143 55.9847 21.3362 56.2435L21.5299 56.5028L33.4057 56.5277L45.2815 56.5526V56.2381C45.2815 56.0652 45.3343 55.4486 45.3988 54.868L45.5162 53.8124L44.9331 52.6116L44.3501 51.4107V50.4276C44.3501 49.0697 44.5853 48.5896 45.8444 47.3774C46.7242 46.5302 46.7785 46.4537 46.9567 45.811C47.2498 44.7538 47.2724 44.8002 46.1392 44.1277C44.3556 43.0691 42.4688 42.3697 40.3613 41.9855C39.3956 41.8095 36.7989 41.7283 35.8027 41.8429ZM57.4818 45.3626C57.674 45.8659 57.7075 45.8975 58.2707 46.1036C58.5942 46.222 58.9878 46.3877 59.1454 46.4718C59.4143 46.6154 59.4652 46.6101 59.9715 46.3862L60.5109 46.1475L61.1782 46.8157L61.8456 47.4838L61.6099 47.9914L61.3742 48.4991L61.6976 49.2658C61.8754 49.6876 62.0428 50.0988 62.0694 50.1797C62.0962 50.2606 62.3663 50.4112 62.6697 50.5142L63.2213 50.7017V51.6529V52.6042L62.6488 52.813C62.1181 53.0065 62.0671 53.0522 61.9515 53.4389C61.8829 53.6682 61.7224 54.0621 61.5949 54.3141L61.3629 54.7724L61.6123 55.3362L61.8616 55.9L61.2196 56.5421C60.5082 57.2535 60.6711 57.2228 59.7005 56.8275C59.4489 56.7251 59.3344 56.7477 58.7447 57.0155C58.3762 57.1829 57.9929 57.3346 57.8929 57.3525C57.7772 57.3732 57.6326 57.581 57.495 57.9242L57.2787 58.4634L56.3462 58.4913L55.4137 58.5191L55.1646 57.9416C54.9638 57.4764 54.8603 57.3505 54.6323 57.2942C54.4768 57.2558 54.0934 57.11 53.7803 56.9703L53.2113 56.7163L52.6688 56.9411L52.1262 57.166L51.4978 56.5432C51.1521 56.2005 50.8693 55.865 50.8693 55.7975C50.8693 55.73 50.9652 55.4775 51.0823 55.2363L51.2953 54.7978L50.9843 54.1229C50.8132 53.7518 50.6732 53.3799 50.6732 53.2964C50.6732 53.0989 50.5295 52.9959 49.9625 52.7863L49.4968 52.6143V51.6544V50.6945L50.0018 50.5106C50.2796 50.4095 50.5391 50.2606 50.5786 50.1797C50.618 50.0988 50.7914 49.6942 50.9639 49.2806L51.2773 48.5284L51.0733 48.0672C50.9611 47.8135 50.8693 47.5551 50.8693 47.493C50.8693 47.431 51.1515 47.1004 51.4965 46.7585L52.1237 46.1369L52.6608 46.3827L53.1979 46.6287L53.7737 46.3476C54.0903 46.1931 54.4832 46.0405 54.6467 46.0085C54.9019 45.9587 54.976 45.8679 55.1707 45.3657L55.3974 44.7811L56.3393 44.809L57.2812 44.837L57.4818 45.3626ZM55.4278 48.5464C54.5112 48.85 53.7963 49.4536 53.3998 50.2586C53.2111 50.6417 53.173 50.8749 53.173 51.6502C53.173 52.4401 53.2095 52.6555 53.413 53.0691C53.945 54.1503 54.923 54.7875 56.163 54.8609C57.521 54.9413 58.6057 54.2978 59.2216 53.0466C59.4987 52.4837 59.5426 52.2933 59.5426 51.6502C59.5426 51.0069 59.4988 50.8167 59.2211 50.2526C58.674 49.1413 57.7241 48.5107 56.5061 48.4504C56.1052 48.4306 55.6569 48.4705 55.4278 48.5464ZM48.3093 61.2328C48.0387 61.8125 47.4604 63.0494 47.0241 63.9818C46.5227 65.053 46.2651 65.7113 46.3239 65.7701C46.3828 65.829 46.9554 65.7694 47.8798 65.6082C48.7544 65.4555 49.3951 65.3869 49.4732 65.4373C49.5452 65.4838 49.9242 66.0731 50.3156 66.7468C50.7069 67.4206 51.0917 67.9844 51.1706 67.9996C51.2709 68.0189 51.6175 67.3736 52.3218 65.856C52.876 64.6618 53.3129 63.6683 53.2927 63.6481C53.2726 63.6279 53.0286 63.5683 52.7506 63.5156C51.6204 63.3013 50.8541 62.7181 50.0313 61.4461C49.4758 60.5873 49.1055 60.179 48.8821 60.179C48.8376 60.179 48.5797 60.6532 48.3093 61.2328ZM63.4015 60.4C63.258 60.5211 62.8999 60.9951 62.6057 61.4534C61.7839 62.7335 61.1934 63.1956 60.0043 63.489L59.3149 63.6591L60.3168 65.8153C60.881 67.0295 61.3815 67.9837 61.4626 67.9993C61.5564 68.0173 61.8732 67.5662 62.3738 66.7008C62.8869 65.8141 63.1968 65.3747 63.3089 65.3747C63.4011 65.3747 64.087 65.4837 64.8333 65.617C66.1621 65.8543 66.3583 65.859 66.3583 65.6537C66.3583 65.447 63.8616 60.179 63.7638 60.1795C63.708 60.1798 63.545 60.279 63.4015 60.4Z" fill="#16A4AD"/>
</svg>
