<svg width="88" height="88" viewBox="0 0 88 88" fill="none" xmlns="http://www.w3.org/2000/svg">
<path fill-rule="evenodd" clip-rule="evenodd" d="M43.6439 20.1132C43.2163 20.3584 43.1929 20.4793 43.1895 22.4567L43.1863 24.3637H41.3782C39.0932 24.3637 39.118 24.3514 39.118 25.4883V26.2962H43.9999H48.8819V25.4883C48.8819 24.3514 48.9066 24.3637 46.6216 24.3637H44.8136V22.5378C44.8136 20.5913 44.7555 20.2926 44.3399 20.1032C44.0323 19.9631 43.9025 19.9649 43.6439 20.1132ZM36.9199 28.022C36.8018 28.0705 36.6072 28.2344 36.4876 28.3865L36.2702 28.6629V48.3295V67.9961H38.0477H39.8251L39.853 62.0556L39.8808 56.1151L40.1967 55.7243C40.8392 54.9297 40.853 54.9268 43.9999 54.9268C47.1468 54.9268 47.1607 54.9297 47.8032 55.7243L48.1191 56.1151L48.1468 62.0556L48.1747 67.9961H49.9521H51.7297V48.3174V28.6387L51.4329 28.3065L51.1362 27.9743L44.1354 27.9543C40.2851 27.9432 37.0381 27.9737 36.9199 28.022ZM43.0265 33.3721C43.1583 33.504 43.1863 33.8143 43.1863 35.1462C43.1863 37.2013 43.317 37.0771 41.1521 37.0771C38.9834 37.0771 39.118 37.2074 39.118 35.1084C39.118 33.9591 39.1551 33.4192 39.24 33.3343C39.3254 33.2489 39.8871 33.2123 41.1144 33.2123C42.5717 33.2123 42.8935 33.2391 43.0265 33.3721ZM48.7598 33.3343C48.8447 33.4192 48.8819 33.9591 48.8819 35.1084C48.8819 37.2074 49.0164 37.0771 46.8477 37.0771C44.6828 37.0771 44.8136 37.2013 44.8136 35.1462C44.8136 33.8143 44.8415 33.504 44.9734 33.3721C45.1063 33.2391 45.4281 33.2123 46.8854 33.2123C48.1127 33.2123 48.6744 33.2489 48.7598 33.3343ZM22.1532 38.8265C22.0822 38.8975 22.0312 39.2378 22.0312 39.6402V40.3318H26.9131H31.795V39.6402C31.795 39.2378 31.744 38.8975 31.673 38.8265C31.4973 38.6509 22.3288 38.6509 22.1532 38.8265ZM43.081 38.9012C43.1398 39.0111 43.1863 39.7547 43.1863 40.586C43.1863 41.4174 43.1398 42.161 43.081 42.2709C42.9829 42.4541 42.8511 42.4676 41.1689 42.4676C39.8992 42.4676 39.3258 42.4313 39.24 42.3456C39.1552 42.2608 39.118 41.724 39.118 40.586C39.118 39.448 39.1552 38.9113 39.24 38.8265C39.3258 38.7408 39.8992 38.7045 41.1689 38.7045C42.8511 38.7045 42.9829 38.718 43.081 38.9012ZM48.7598 38.8265C48.9309 38.9976 48.9309 42.1745 48.7598 42.3456C48.6741 42.4313 48.1006 42.4676 46.8309 42.4676C45.1487 42.4676 45.0169 42.4541 44.9188 42.2709C44.86 42.161 44.8136 41.4174 44.8136 40.586C44.8136 39.7547 44.86 39.0111 44.9188 38.9012C45.0169 38.718 45.1487 38.7045 46.8309 38.7045C48.1006 38.7045 48.6741 38.7408 48.7598 38.8265ZM56.3268 38.8265C56.2558 38.8975 56.2048 39.2378 56.2048 39.6402V40.3318H61.0867H65.9687V39.6402C65.9687 39.2378 65.9176 38.8975 65.8466 38.8265C65.671 38.6509 56.5025 38.6509 56.3268 38.8265ZM19.7031 42.1011C19.1675 42.3979 19.1908 41.8154 19.1869 55.0014L19.1833 67.2809L19.4801 67.6131L19.7768 67.9453L27.2099 67.9726L34.6428 68V54.9795V41.9591L27.2945 41.9627C21.3904 41.9656 19.8984 41.9928 19.7031 42.1011ZM53.357 54.9795V68L60.7899 67.9726L68.223 67.9453L68.5197 67.6131L68.8165 67.2809V55.0219C68.8165 41.6988 68.8443 42.3469 68.2599 42.0806C68.0611 41.99 66.1323 41.9591 60.6751 41.9591H53.357V54.9795ZM42.9602 44.2533C43.1776 44.4056 43.1863 44.473 43.1863 46.0259C43.1863 47.3578 43.1583 47.6681 43.0265 47.8C42.894 47.9324 42.5784 47.9598 41.189 47.9598C40.2271 47.9598 39.4275 47.9149 39.3147 47.8545C39.1325 47.757 39.118 47.6262 39.118 46.0819C39.118 44.7017 39.1455 44.387 39.2777 44.2547C39.512 44.0206 42.6262 44.0193 42.9602 44.2533ZM48.7221 44.2547C48.8543 44.387 48.8819 44.7017 48.8819 46.0819C48.8819 47.6262 48.8673 47.757 48.6852 47.8545C48.5724 47.9149 47.7727 47.9598 46.8108 47.9598C45.4214 47.9598 45.1058 47.9324 44.9734 47.8C44.8415 47.6681 44.8136 47.3578 44.8136 46.0259C44.8136 43.9654 44.6726 44.0949 46.9139 44.0949C48.2768 44.0949 48.5899 44.1226 48.7221 44.2547ZM25.8733 47.7113C26.0908 47.8636 26.0994 47.931 26.0994 49.4839C26.0994 50.8159 26.0715 51.1262 25.9397 51.2581C25.8072 51.3904 25.4916 51.4179 24.1022 51.4179C23.1403 51.4179 22.3406 51.3729 22.2279 51.3126C22.0457 51.2151 22.0312 51.0843 22.0312 49.5399C22.0312 48.1598 22.0587 47.8451 22.1909 47.7128C22.4252 47.4786 25.5393 47.4773 25.8733 47.7113ZM31.6353 47.7128C31.7675 47.8451 31.795 48.1598 31.795 49.5399C31.795 51.0843 31.7805 51.2151 31.5983 51.3126C31.4855 51.3729 30.6859 51.4179 29.724 51.4179C28.3346 51.4179 28.019 51.3904 27.8865 51.2581C27.7547 51.1262 27.7268 50.8159 27.7268 49.4839C27.7268 47.4234 27.5858 47.553 29.8271 47.553C31.19 47.553 31.503 47.5807 31.6353 47.7128ZM60.047 47.7113C60.2644 47.8636 60.2731 47.931 60.2731 49.4839C60.2731 50.8159 60.2451 51.1262 60.1133 51.2581C59.9809 51.3904 59.6653 51.4179 58.2758 51.4179C57.3139 51.4179 56.5143 51.3729 56.4015 51.3126C56.2193 51.2151 56.2048 51.0843 56.2048 49.5399C56.2048 48.1598 56.2323 47.8451 56.3646 47.7128C56.5988 47.4786 59.713 47.4773 60.047 47.7113ZM65.8089 47.7128C65.9411 47.8451 65.9687 48.1598 65.9687 49.5399C65.9687 51.0843 65.9541 51.2151 65.772 51.3126C65.6592 51.3729 64.8596 51.4179 63.8976 51.4179C62.5082 51.4179 62.1926 51.3904 62.0602 51.2581C61.9283 51.1262 61.9004 50.8159 61.9004 49.4839C61.9004 47.4234 61.7594 47.553 64.0007 47.553C65.3636 47.553 65.6767 47.5807 65.8089 47.7128ZM25.9397 53.205C26.0715 53.3369 26.0994 53.6472 26.0994 54.9791C26.0994 57.0342 26.2302 56.91 24.0653 56.91C21.8951 56.91 22.0312 57.0428 22.0312 54.926C22.0312 53.4454 22.0511 53.2471 22.2091 53.155C22.31 53.0962 23.1215 53.0501 24.0835 53.0482C25.4929 53.0457 25.8068 53.0722 25.9397 53.205ZM31.5983 53.1504C31.7805 53.248 31.795 53.3788 31.795 54.9245C31.795 57.043 31.9312 56.91 29.7609 56.91C27.596 56.91 27.7268 57.0342 27.7268 54.9791C27.7268 53.6472 27.7547 53.3369 27.8865 53.205C28.019 53.0726 28.3346 53.0452 29.724 53.0452C30.6859 53.0452 31.4855 53.0901 31.5983 53.1504ZM60.1133 53.205C60.2451 53.3369 60.2731 53.6472 60.2731 54.9791C60.2731 57.0342 60.4039 56.91 58.2389 56.91C56.0687 56.91 56.2048 57.0428 56.2048 54.926C56.2048 53.4454 56.2247 53.2471 56.3828 53.155C56.4837 53.0962 57.2951 53.0501 58.2571 53.0482C59.6665 53.0457 59.9804 53.0722 60.1133 53.205ZM65.772 53.1504C65.9541 53.248 65.9687 53.3788 65.9687 54.9245C65.9687 57.043 66.1049 56.91 63.9345 56.91C61.7696 56.91 61.9004 57.0342 61.9004 54.9791C61.9004 53.6472 61.9283 53.3369 62.0602 53.205C62.1926 53.0726 62.5082 53.0452 63.8976 53.0452C64.8596 53.0452 65.6592 53.0901 65.772 53.1504ZM25.9942 58.7341C26.1319 58.9914 26.1319 61.8465 25.9942 62.1038C25.8961 62.287 25.7643 62.3005 24.0821 62.3005C22.8124 62.3005 22.2389 62.2642 22.1532 62.1785C21.9821 62.0074 21.9821 58.8305 22.1532 58.6594C22.2389 58.5737 22.8124 58.5374 24.0821 58.5374C25.7643 58.5374 25.8961 58.5509 25.9942 58.7341ZM31.673 58.6594C31.8441 58.8305 31.8441 62.0074 31.673 62.1785C31.5873 62.2642 31.0138 62.3005 29.7441 62.3005C28.0619 62.3005 27.9301 62.287 27.832 62.1038C27.7732 61.9939 27.7268 61.2503 27.7268 60.4189C27.7268 59.5876 27.7732 58.844 27.832 58.7341C27.9301 58.5509 28.0619 58.5374 29.7441 58.5374C31.0138 58.5374 31.5873 58.5737 31.673 58.6594ZM60.1678 58.7341C60.2266 58.844 60.2731 59.5876 60.2731 60.4189C60.2731 61.2503 60.2266 61.9939 60.1678 62.1038C60.0698 62.287 59.9379 62.3005 58.2557 62.3005C56.986 62.3005 56.4126 62.2642 56.3268 62.1785C56.1558 62.0074 56.1558 58.8305 56.3268 58.6594C56.4126 58.5737 56.986 58.5374 58.2557 58.5374C59.9379 58.5374 60.0698 58.5509 60.1678 58.7341ZM65.8466 58.6594C66.0177 58.8305 66.0177 62.0074 65.8466 62.1785C65.7609 62.2642 65.1875 62.3005 63.9177 62.3005C62.2355 62.3005 62.1037 62.287 62.0056 62.1038C61.9469 61.9939 61.9004 61.2503 61.9004 60.4189C61.9004 59.5876 61.9469 58.844 62.0056 58.7341C62.1037 58.5509 62.2355 58.5374 63.9177 58.5374C65.1875 58.5374 65.7609 58.5737 65.8466 58.6594Z" fill="#16A4AD"/>
</svg>
