<svg width="48" height="49" viewBox="0 0 48 49" fill="none" xmlns="http://www.w3.org/2000/svg">
<g clip-path="url(#clip0_282_878)">
<path d="M42 0.5H6C2.691 0.5 0 3.191 0 6.5V42.5C0 45.809 2.691 48.5 6 48.5H42C45.309 48.5 48 45.809 48 42.5V6.5C48 3.191 45.309 0.5 42 0.5Z" fill="#1976D2"/>
<path fill-rule="evenodd" clip-rule="evenodd" d="M40.5 24.5H33V18.5C33 16.844 34.344 17 36 17H39V9.5H33C30.6131 9.5 28.3239 10.4482 26.636 12.136C24.9482 13.8239 24 16.1131 24 18.5V24.5H18V32H24V48.5H33V32H37.5L40.5 24.5Z" fill="#FAFAFA"/>
</g>
<defs>
<clipPath id="clip0_282_878">
<rect width="48" height="48" fill="white" transform="translate(0 0.5)"/>
</clipPath>
</defs>
</svg>
