<svg width="48" height="49" viewBox="0 0 48 49" fill="none" xmlns="http://www.w3.org/2000/svg">
<g clip-path="url(#clip0_282_864)">
<path d="M45.3333 0.5H2.66667C1.19391 0.5 0 1.69391 0 3.16667V45.8333C0 47.3061 1.19391 48.5 2.66667 48.5H45.3333C46.8061 48.5 48 47.3061 48 45.8333V3.16667C48 1.69391 46.8061 0.5 45.3333 0.5Z" fill="#117EB8"/>
<path fill-rule="evenodd" clip-rule="evenodd" d="M8.75925 19.0653H15.1746V39.7066H8.75925V19.0653ZM11.9679 8.80462C14.0192 8.80462 15.6859 10.4713 15.6859 12.5226C15.6859 14.576 14.0192 16.2433 11.9679 16.2433C11.4736 16.2526 10.9823 16.1634 10.5229 15.9807C10.0634 15.7979 9.64499 15.5255 9.29207 15.1792C8.93915 14.8329 8.65881 14.4197 8.46743 13.9638C8.27606 13.5079 8.17749 13.0184 8.17749 12.524C8.17749 12.0295 8.27606 11.54 8.46743 11.0841C8.65881 10.6282 8.93915 10.215 9.29207 9.86874C9.64499 9.52244 10.0634 9.24997 10.5229 9.06726C10.9823 8.88455 11.4736 8.79526 11.9679 8.80462ZM19.1986 19.0646H25.3519V21.8853H25.4372C26.2939 20.2626 28.3866 18.552 31.5072 18.552C38.0032 18.552 39.2032 22.8273 39.2032 28.3853V39.7066H32.7919V29.6686C32.7919 27.2753 32.7479 24.196 29.4586 24.196C26.1206 24.196 25.6079 26.8033 25.6079 29.496V39.7066H19.1979V19.0653L19.1986 19.0646Z" fill="white"/>
</g>
<defs>
<clipPath id="clip0_282_864">
<rect width="48" height="48" fill="white" transform="translate(0 0.5)"/>
</clipPath>
</defs>
</svg>
