<svg width="88" height="88" viewBox="0 0 88 88" fill="none" xmlns="http://www.w3.org/2000/svg">
<path fill-rule="evenodd" clip-rule="evenodd" d="M41.6923 21.3501C41.4336 21.5723 41.4286 21.5961 41.3981 22.7564L41.367 23.9366H39.7809H38.1948V25.0147V26.0929H42.1792H46.1636V25.0147V23.9366H44.5229H42.8823V22.7247C42.8823 21.527 42.8794 21.5104 42.6353 21.3184C42.3105 21.0629 42.0149 21.0728 41.6923 21.3501ZM35.8276 27.6941C35.6724 27.7846 35.6636 28.6518 35.6636 43.8163V59.8428H37.2064H38.7492L38.7767 55.125L38.8042 50.407L39.0537 50.0302C39.4922 49.3677 39.7484 49.3003 41.9569 49.2659C44.0595 49.2332 44.4769 49.2917 44.9439 49.6846C45.5238 50.1725 45.5073 50.0128 45.5073 55.1507V59.8428H47.1011H48.6948V43.8651C48.6948 29.465 48.6803 27.873 48.5475 27.7401C48.4165 27.6092 47.7136 27.5931 42.196 27.5957C38.1566 27.5975 35.9344 27.6319 35.8276 27.6941ZM41.2678 31.8904C41.3582 31.9479 41.3811 32.3091 41.3615 33.3656L41.3354 34.7647L39.895 34.7907C38.9124 34.8083 38.4132 34.7824 38.3247 34.7089C38.1518 34.5654 38.1364 32.095 38.3073 31.9241C38.4371 31.7944 41.0692 31.7644 41.2678 31.8904ZM46.0163 31.9589C46.1344 32.0771 46.1636 32.3377 46.1636 33.2776C46.1636 33.9218 46.1199 34.5305 46.0665 34.6303C45.9771 34.7973 45.8573 34.8116 44.5384 34.8116C43.5504 34.8116 43.0725 34.7768 42.9948 34.6991C42.8526 34.5569 42.8395 32.2543 42.9794 31.9929C43.0687 31.8261 43.1882 31.8116 44.4727 31.8116C45.617 31.8116 45.8955 31.8382 46.0163 31.9589ZM23.5698 36.5928V37.3428H27.5542H31.5386V36.5928V35.8428H27.5542H23.5698V36.5928ZM52.8198 36.5928V37.3428H56.7573H60.6948V36.5928V35.8428H56.7573H52.8198V36.5928ZM41.3354 37.7647V39.171H39.7886H38.2417L38.2147 37.9522C38.1744 36.1371 38.0114 36.3022 39.8144 36.3327L41.3354 36.3585V37.7647ZM46.0665 36.4929C46.1696 36.6856 46.2029 38.8189 46.1067 39.0695C46.058 39.1964 45.8287 39.2178 44.5229 39.2178C43.2172 39.2178 42.9879 39.1964 42.9392 39.0695C42.8294 38.7832 42.8764 36.5425 42.9948 36.4241C43.0725 36.3464 43.5504 36.3116 44.5384 36.3116C45.8573 36.3116 45.9771 36.3259 46.0665 36.4929ZM21.247 38.9888L21.0386 39.1347V49.3337C21.0386 59.1109 21.0457 59.539 21.2108 59.6884C21.3683 59.8309 21.9253 59.8421 27.7499 59.8201L34.1167 59.796V49.4524C34.1167 39.3217 34.1129 39.1062 33.9347 38.9759C33.7819 38.8642 32.7662 38.8428 27.604 38.8428C22.1907 38.8428 21.4304 38.8603 21.247 38.9888ZM50.3823 39.0303C50.1974 39.2152 50.1948 39.3408 50.1979 47.96L50.201 56.7022L50.5087 55.8937C51.2169 54.0328 52.4655 52.4568 54.0678 51.4011L54.9152 50.8429H54.0158C53.5212 50.8429 53.0497 50.8173 52.9681 50.7859C52.7459 50.7007 52.7459 47.985 52.9681 47.8998C53.2568 47.7889 55.7763 47.8369 55.8948 47.9554C55.9702 48.0307 56.0073 48.4513 56.0073 49.231C56.0073 50.2741 56.0234 50.3881 56.1622 50.3347C56.2474 50.302 56.5849 50.208 56.9122 50.1258L57.5073 49.9763V49.022C57.5073 48.4049 57.5471 48.0281 57.6198 47.9554C57.7472 47.8279 60.38 47.7947 60.5742 47.9179C60.6481 47.965 60.6973 48.3285 60.7148 48.9587L60.7417 49.927L61.3979 50.0944C61.9632 50.2383 62.4806 50.4168 63.1558 50.7003C63.311 50.7654 63.3198 50.4559 63.3198 44.952V39.1347L63.1114 38.9888C62.928 38.8603 62.166 38.8428 56.7364 38.8428C50.6948 38.8428 50.566 38.8467 50.3823 39.0303ZM41.2678 40.7967C41.3582 40.8542 41.3811 41.2154 41.3615 42.2719L41.3354 43.671L39.895 43.6969C38.9124 43.7146 38.4132 43.6886 38.3247 43.6151C38.2255 43.5329 38.1948 43.2009 38.1948 42.211C38.1948 41.0753 38.2152 40.9028 38.3589 40.8191C38.553 40.706 41.094 40.6864 41.2678 40.7967ZM46.0163 40.8651C46.1344 40.9834 46.1636 41.244 46.1636 42.1838C46.1636 42.8281 46.1199 43.4368 46.0665 43.5365C45.9771 43.7036 45.8573 43.7178 44.5384 43.7178C43.5504 43.7178 43.0725 43.6831 42.9948 43.6054C42.9187 43.5292 42.8823 43.0923 42.8823 42.2526C42.8823 41.2503 42.9105 40.9843 43.0296 40.8651C43.2465 40.6483 45.7994 40.6483 46.0163 40.8651ZM26.7942 43.5849C26.8682 43.7779 26.8682 46.0015 26.7942 46.1945C26.7456 46.3212 26.5198 46.3429 25.2506 46.3429C23.8767 46.3429 23.7566 46.3291 23.6669 46.1615C23.6135 46.0618 23.5698 45.4894 23.5698 44.8897C23.5698 44.29 23.6135 43.7177 23.6669 43.6179C23.7566 43.4504 23.8767 43.4366 25.2506 43.4366C26.5198 43.4366 26.7456 43.4583 26.7942 43.5849ZM31.4917 44.8897V46.296H29.9448H28.3979L28.3717 44.988C28.3574 44.2686 28.3669 43.6242 28.3932 43.5559C28.4305 43.4586 28.769 43.4374 29.9662 43.4577L31.4917 43.4835V44.8897ZM55.9604 44.8897V46.296H54.4136H52.8667L52.8405 44.988C52.8261 44.2686 52.8357 43.6242 52.8619 43.5559C52.8992 43.4586 53.2378 43.4374 54.4349 43.4577L55.9604 43.4835V44.8897ZM60.6479 44.8897V46.296H59.1011H57.5542L57.528 44.988C57.5136 44.2686 57.5232 43.6242 57.5494 43.5559C57.5867 43.4586 57.9253 43.4374 59.1224 43.4577L60.6479 43.4835V44.8897ZM26.7386 47.9554C26.895 48.1118 26.895 50.5739 26.7386 50.7304C26.6609 50.8081 26.183 50.8429 25.195 50.8429C23.8761 50.8429 23.7563 50.8286 23.6669 50.6615C23.6135 50.5618 23.5698 49.9684 23.5698 49.3429C23.5698 48.7174 23.6135 48.1239 23.6669 48.0242C23.7563 47.8571 23.8761 47.8429 25.195 47.8429C26.183 47.8429 26.6609 47.8776 26.7386 47.9554ZM31.4261 47.9554C31.5825 48.1118 31.5825 50.5739 31.4261 50.7304C31.3076 50.8489 28.788 50.8968 28.4994 50.7859C28.3734 50.7376 28.3511 50.5202 28.3511 49.3406C28.3511 48.3176 28.3819 47.9398 28.4683 47.9049C28.7302 47.7993 31.3139 47.8432 31.4261 47.9554ZM57.8354 51.4525C56.1752 51.7663 54.851 52.4826 53.6488 53.7174C52.606 54.7884 51.9122 56.0793 51.5913 57.546C51.4011 58.415 51.448 60.1188 51.6868 61.0147C52.4602 63.9172 54.7469 66.0988 57.6419 66.6963C60.257 67.236 62.777 66.4765 64.6778 64.5758C66.3393 62.9142 67.0726 60.9918 66.9479 58.6241C66.7049 54.0111 62.3661 50.5964 57.8354 51.4525ZM26.7942 52.4912C26.8682 52.6842 26.8682 54.9078 26.7942 55.1008C26.7456 55.2274 26.5198 55.2491 25.2506 55.2491C23.8767 55.2491 23.7566 55.2353 23.6669 55.0678C23.6135 54.968 23.5698 54.3957 23.5698 53.796C23.5698 53.1963 23.6135 52.6239 23.6669 52.5242C23.7566 52.3566 23.8767 52.3429 25.2506 52.3429C26.5198 52.3429 26.7456 52.3645 26.7942 52.4912ZM31.4917 53.796V55.2022H29.9448H28.3979L28.3717 53.8942C28.3574 53.1749 28.3669 52.5304 28.3932 52.4622C28.4305 52.3649 28.769 52.3437 29.9662 52.3639L31.4917 52.3897V53.796ZM63.4231 55.8379C63.6359 55.9806 63.7835 56.1828 63.8676 56.4466C63.9819 56.8052 63.9757 56.8782 63.8 57.2406C63.5421 57.7729 58.8795 62.4288 58.5145 62.5186C57.9116 62.6671 57.7144 62.5366 56.0999 60.9199L54.5542 59.3719V58.8649C54.5542 58.459 54.599 58.3103 54.7789 58.1188C55.0567 57.8231 55.5601 57.6482 55.8929 57.7317C56.0318 57.7666 56.595 58.2394 57.1559 58.7922L58.1682 59.7897L60.1581 57.8117C61.2525 56.7238 62.2323 55.7878 62.3354 55.7317C62.6401 55.5661 63.0824 55.6092 63.4231 55.8379Z" fill="#16A4AD"/>
</svg>
