<svg width="88" height="88" viewBox="0 0 88 88" fill="none" xmlns="http://www.w3.org/2000/svg">
<path fill-rule="evenodd" clip-rule="evenodd" d="M43.4533 20.2415C43.2248 20.4699 43.2118 20.5439 43.2118 21.6185V22.7541H41.7856H40.3593V23.6393V24.5246H43.9987H47.638V23.6393V22.7541H46.2118H44.7856V21.6185C44.7856 20.5439 44.7726 20.4699 44.5441 20.2415C44.3919 20.0892 44.1903 20 43.9987 20C43.8071 20 43.6054 20.0892 43.4533 20.2415ZM38.1167 26.2164C38.0259 26.3072 37.9987 29.7295 37.9987 41.0223V55.7101L39.4495 55.683L40.9003 55.6557L40.9495 51.2787C40.9857 48.0589 41.0308 46.8455 41.1204 46.6891C41.1873 46.5722 41.4087 46.373 41.6122 46.2465C41.9688 46.0248 42.0559 46.0164 43.9987 46.0164C45.7425 46.0164 46.0582 46.0399 46.3339 46.1906C47.0135 46.562 46.9934 46.4181 47.0479 51.2729C47.1069 56.526 47.0763 56.4305 48.0664 54.4548C48.7026 53.185 49.2697 52.4804 49.7876 52.316L49.9987 52.249V39.2918C49.9987 29.345 49.9712 26.307 49.8807 26.2164C49.7102 26.0459 38.2872 26.0459 38.1167 26.2164ZM43.0938 30.0525C43.1716 30.1303 43.2118 30.5479 43.2118 31.2785C43.2118 32.2733 43.1923 32.3969 43.0216 32.4884C42.8185 32.597 41.0703 32.6303 40.81 32.5305C40.6798 32.4805 40.6544 32.2733 40.6544 31.2599C40.6544 30.3833 40.6884 30.0354 40.7774 29.9995C41.0457 29.8913 42.9767 29.9354 43.0938 30.0525ZM47.1873 29.9941C47.4192 30.083 47.4192 32.4415 47.1873 32.5305C46.9271 32.6303 45.1789 32.597 44.9758 32.4884C44.805 32.3969 44.7856 32.2733 44.7856 31.2785C44.7856 30.5479 44.8258 30.1303 44.9036 30.0525C45.0274 29.9286 46.8927 29.881 47.1873 29.9941ZM26.7856 34.2611V34.8525H30.4298H34.0741L34.0446 34.2869L34.0151 33.7213L30.4003 33.6955L26.7856 33.6697V34.2611ZM53.9987 33.7377C53.9626 33.7737 53.9331 34.0393 53.9331 34.3279V34.8525H57.5725H61.2118V34.2623V33.6721H57.6381C55.6724 33.6721 54.0347 33.7016 53.9987 33.7377ZM43.1906 35.3302C43.2093 36.0827 43.1805 36.4929 43.1022 36.5872C43.0113 36.6968 42.7375 36.7213 41.8448 36.6997L40.7036 36.6721L40.6756 35.547C40.6602 34.9282 40.6705 34.3624 40.6983 34.2898C40.7376 34.1872 41.0173 34.164 41.9557 34.1855L43.1626 34.2131L43.1906 35.3302ZM47.2938 35.4426V36.6721L46.1767 36.7001C45.4373 36.7186 45.0133 36.6895 44.9226 36.6142C44.8204 36.5294 44.7856 36.2204 44.7856 35.3978C44.7856 34.7913 44.8164 34.2643 44.854 34.2266C44.8917 34.189 45.456 34.1705 46.1081 34.1857L47.2938 34.2131V35.4426ZM24.4797 36.6449C24.3455 36.8364 24.3266 37.5434 24.3266 42.3498V47.8361H24.6332C24.8365 47.8361 25.0581 47.7324 25.29 47.5287C25.7734 47.1042 26.2404 46.9281 26.9331 46.9089L27.5233 46.8927L27.5725 45.9627L27.6216 45.0328L28.5051 45.0041C29.2512 44.9798 29.4081 45.0018 29.5133 45.1458C29.6496 45.3322 29.6861 46.7229 29.5599 46.9215C29.5158 46.9909 29.1888 47.0518 28.7688 47.069L28.0529 47.0984L28.5479 47.4672C28.8402 47.6852 29.1545 47.8363 29.3158 47.8367C29.7636 47.8375 30.3455 48.0364 30.785 48.3388C31.1696 48.6034 31.2628 48.623 32.1359 48.623C33.251 48.623 33.2774 48.6476 33.2774 49.6904C33.2774 50.685 33.2746 50.6885 32.4838 50.6885H31.8095L31.7086 51.0574C31.653 51.2603 31.5156 51.5759 31.4032 51.759L31.1988 52.0917L31.4102 52.5831C31.6516 53.1441 31.6888 53.885 31.506 54.4912C31.386 54.8895 31.3916 54.9112 31.7152 55.301L32.0479 55.7014L34.2364 55.7031L36.4249 55.7049V46.2842C36.4249 37.9169 36.4078 36.839 36.2718 36.6449L36.1187 36.4262H30.3757H24.6328L24.4797 36.6449ZM51.7217 36.6558C51.5894 36.8576 51.5742 37.7988 51.5965 44.4509L51.6216 52.0164L57.2774 52.0656C62.4214 52.1103 62.9616 52.1303 63.2479 52.2869C63.4211 52.3815 63.587 52.459 63.6167 52.459C63.6465 52.459 63.6708 48.95 63.6708 44.6613C63.6708 37.7629 63.6531 36.8383 63.5177 36.6449L63.3646 36.4262H57.6183H51.8721L51.7217 36.6558ZM43.1626 39.5738V40.8033H41.9331H40.7036L40.6756 39.6781C40.6602 39.0593 40.6705 38.4936 40.6983 38.421C40.7376 38.3184 41.0173 38.2952 41.9557 38.3166L43.1626 38.3443V39.5738ZM47.2938 39.5738V40.8033H46.0643H44.8348L44.8067 39.6781C44.7914 39.0593 44.8016 38.4936 44.8294 38.421C44.8688 38.3184 45.1484 38.2952 46.0869 38.3166L47.2938 38.3443V39.5738ZM29.5362 41.5345C29.6458 41.7393 29.6766 42.9981 29.5783 43.2542C29.5294 43.3816 29.3422 43.4098 28.5455 43.4098H27.5725V42.4427C27.5725 41.9106 27.602 41.4459 27.6381 41.4099C27.6741 41.3738 28.0931 41.3443 28.5689 41.3443C29.3239 41.3443 29.4474 41.3686 29.5362 41.5345ZM33.1756 41.5345C33.2851 41.7393 33.3159 42.9981 33.2177 43.2542C33.1688 43.3816 32.9815 43.4098 32.1849 43.4098H31.2118V42.4427C31.2118 41.9106 31.2413 41.4459 31.2774 41.4099C31.3134 41.3738 31.7324 41.3443 32.2083 41.3443C32.9632 41.3443 33.0868 41.3686 33.1756 41.5345ZM56.7644 42.4016L56.7925 43.4098H55.8159C54.6837 43.4098 54.72 43.4429 54.72 42.4117C54.72 41.3619 54.7522 41.3316 55.832 41.3652L56.7364 41.3934L56.7644 42.4016ZM60.4038 42.4016L60.4318 43.4098H59.4553C58.323 43.4098 58.3593 43.4429 58.3593 42.4117C58.3593 41.3619 58.3915 41.3316 59.4713 41.3652L60.3757 41.3934L60.4038 42.4016ZM33.1756 45.1738C33.2851 45.3786 33.3159 46.6374 33.2177 46.8936C33.1688 47.021 32.9815 47.0492 32.1849 47.0492H31.2118V46.082C31.2118 45.55 31.2413 45.0852 31.2774 45.0492C31.3134 45.0131 31.7324 44.9836 32.2083 44.9836C32.9632 44.9836 33.0868 45.0079 33.1756 45.1738ZM56.7644 46.041L56.7925 47.0492H55.8159C54.6837 47.0492 54.72 47.0822 54.72 46.051C54.72 45.0012 54.7522 44.9709 55.832 45.0046L56.7364 45.0328L56.7644 46.041ZM60.4038 46.041L60.4318 47.0492H59.4553C58.323 47.0492 58.3593 47.0822 58.3593 46.051C58.3593 45.0012 58.3915 44.9709 59.4713 45.0046L60.3757 45.0328L60.4038 46.041ZM26.5217 48.5828C26.321 48.6832 26.1335 48.899 26 49.1832C25.7699 49.6726 25.8842 49.6488 24.7439 49.4453C24.1631 49.3417 23.5639 50.0071 23.7046 50.5992C23.7356 50.7295 24.1582 51.2396 24.6437 51.7329L25.5264 52.6298L24.9591 52.6768C24.4765 52.7168 24.3504 52.7703 24.1133 53.0356C23.647 53.5575 23.8028 54.2351 24.4564 54.5277L24.8362 54.6977L24.222 55.3734C22.1265 57.6791 20.8815 59.5921 20.5437 61.0251C20.1034 62.8928 20.6419 64.6379 22.1038 66.082C22.9696 66.937 23.8326 67.4363 25.0186 67.7682C26.0119 68.0461 28.0777 68.0207 29.0454 67.7186C30.8277 67.1623 32.0492 66.2134 32.8616 64.7541C33.3101 63.9485 33.4741 63.2701 33.4741 62.2208C33.4741 60.3206 32.6347 58.7447 30.0396 55.7731C29.2291 54.845 29.0759 54.623 29.2459 54.623C29.3616 54.623 29.5858 54.4936 29.744 54.3354C30.0537 54.0257 30.1304 53.5163 29.9252 53.1328C29.7894 52.8791 29.2566 52.6557 28.7873 52.6557H28.4221L29.2692 51.7901C29.735 51.314 30.1463 50.805 30.1829 50.6589C30.3862 49.849 29.6805 49.2345 28.8587 49.5057C28.336 49.6783 28.1391 49.61 27.9311 49.1841C27.6265 48.5604 27.0541 48.3163 26.5217 48.5828ZM56.7644 49.6803L56.7925 50.6885H55.8159C54.6837 50.6885 54.72 50.7216 54.72 49.6904C54.72 48.6406 54.7522 48.6103 55.832 48.6439L56.7364 48.6721L56.7644 49.6803ZM60.4038 49.6803L60.4318 50.6885H59.4553C58.323 50.6885 58.3593 50.7216 58.3593 49.6904C58.3593 48.6406 58.3915 48.6103 59.4713 48.6439L60.3757 48.6721L60.4038 49.6803ZM50.3661 53.7935C50.1593 53.9066 49.8703 54.3893 49.1607 55.8072L48.2272 57.6721H56.5392C61.1108 57.6721 64.8511 57.6495 64.8511 57.6219C64.8511 57.4452 63.0619 54.0447 62.8849 53.8852C62.6723 53.6935 62.5123 53.6879 56.6524 53.6667C51.4421 53.6477 50.6016 53.6646 50.3661 53.7935ZM45.7142 57.0248C45.559 57.1384 45.5233 57.2845 45.5233 57.8068C45.5233 58.952 45.8398 58.9215 46.4364 57.7187L46.8497 56.8852H46.3774C46.1177 56.8852 45.8192 56.9481 45.7142 57.0248ZM66.3266 56.9861C66.3266 57.1596 66.9907 58.4147 67.1544 58.5505C67.4316 58.7807 67.6052 58.5135 67.6052 57.8569C67.6052 57.1146 67.4078 56.8852 66.7692 56.8852C66.5257 56.8852 66.3266 56.9306 66.3266 56.9861ZM27.4932 57.4441C27.5849 57.5268 27.6734 57.6866 27.6899 57.7994C27.7076 57.9203 27.8974 58.1081 28.152 58.2566C29.3539 58.958 29.6111 60.2883 28.5831 60.4869C28.2969 60.5422 28.2186 60.4991 27.7806 60.0446C27.3736 59.6223 27.2381 59.541 26.942 59.541C26.6102 59.541 26.1954 59.8058 26.1954 60.0175C26.1954 60.2054 26.5739 60.4128 27.121 60.5246C28.8184 60.8716 29.6694 61.8697 29.333 63.119C29.1723 63.7158 28.9288 63.9968 28.2659 64.3501C27.8785 64.5566 27.6708 64.7286 27.6708 64.843C27.6708 65.3529 26.7246 65.5825 26.3794 65.1563C26.2782 65.0313 26.1953 64.8565 26.1952 64.7678C26.195 64.6724 25.975 64.4916 25.6562 64.3251C25.004 63.9842 24.5233 63.3338 24.5233 62.7919C24.5233 61.8236 25.5486 61.6095 25.9949 62.4845C26.1056 62.7013 26.2815 62.9244 26.386 62.9804C26.7958 63.1996 27.7387 63.0305 27.8414 62.7193C27.914 62.4989 27.4913 62.2142 26.9173 62.0971C25.644 61.8371 24.936 61.3267 24.7162 60.5102C24.4785 59.6277 24.9959 58.5717 25.8423 58.2115C26.0286 58.1323 26.1659 57.9749 26.2357 57.7606C26.4158 57.2076 27.0528 57.0473 27.4932 57.4441ZM47.5674 59.4524C46.939 59.6953 46.2832 60.3144 45.9613 60.9688C45.7313 61.4361 45.7185 61.5591 45.6885 63.5984L45.657 65.7377H56.5328H67.4085V63.6387V61.5396L67.1088 60.9399C66.7862 60.2942 66.368 59.8691 65.709 59.517L65.2938 59.2951L56.6872 59.2745C48.2661 59.2544 48.0696 59.2582 47.5674 59.4524ZM50.31 61.1885C50.6633 61.3965 50.944 61.8293 51.0275 62.2951C51.0732 62.5499 51.0306 62.7537 50.8637 63.0797C50.1488 64.475 48.1287 63.9933 48.1302 62.4278C48.1312 61.3739 49.3997 60.6528 50.31 61.1885ZM64.3766 61.2596C64.8816 61.6029 65.1228 62.2474 64.9552 62.8066C64.4568 64.4701 62.0958 64.1572 62.0974 62.4278C62.0985 61.3068 63.4366 60.621 64.3766 61.2596ZM47.0479 67.4143C47.0479 67.4708 47.1566 67.6257 47.2893 67.7585C47.5092 67.9785 47.6083 68 48.3986 68C49.3064 68 49.5929 67.8988 49.8046 67.5032C49.9042 67.3173 49.8642 67.3115 48.4775 67.3115C47.5485 67.3115 47.0479 67.3475 47.0479 67.4143ZM63.2774 67.4143C63.2774 67.4708 63.3861 67.6257 63.5188 67.7585C63.739 67.9788 63.8372 68 64.6367 68C65.3744 68 65.5541 67.9677 65.7723 67.7961C66.3036 67.3782 66.1499 67.3115 64.6544 67.3115C63.7621 67.3115 63.2774 67.3477 63.2774 67.4143Z" fill="#16A4AD"/>
</svg>
