<svg width="48" height="49" viewBox="0 0 48 49" fill="none" xmlns="http://www.w3.org/2000/svg">
<g clip-path="url(#clip0_282_871)">
<path d="M37.2262 0.5H10.7738C4.8236 0.5 0 5.3236 0 11.2738V37.7262C0 43.6764 4.8236 48.5 10.7738 48.5H37.2262C43.1764 48.5 48 43.6764 48 37.7262V11.2738C48 5.3236 43.1764 0.5 37.2262 0.5Z" fill="#00C7FF"/>
<path fill-rule="evenodd" clip-rule="evenodd" d="M19.5192 30.6102C18.3853 30.5821 17.2881 30.2022 16.3795 29.523C15.471 28.8439 14.7961 27.8991 14.4482 26.8194C15.2203 26.9904 16.0204 26.9904 16.7925 26.8194C16.0623 26.6478 15.3754 26.3274 14.7746 25.8783C14.1738 25.4291 13.6722 24.8609 13.301 24.2091C12.758 23.3373 12.4807 22.3263 12.5029 21.2995C13.2482 21.7097 14.0801 21.9376 14.9304 21.9645C13.7893 21.1792 12.9874 19.9913 12.6858 18.6393C12.3809 17.2954 12.601 15.8858 13.301 14.6989C14.6706 16.3875 16.3778 17.7715 18.3132 18.7621C20.2486 19.7527 22.3696 20.3281 24.5404 20.4515C24.5404 20.2354 24.5404 20.0525 24.4572 19.853C24.3077 18.7214 24.517 17.5713 25.0557 16.565C25.5944 15.5586 26.4353 14.7466 27.46 14.2435C28.4846 13.7404 29.6412 13.5714 30.7669 13.7605C31.8927 13.9496 32.9307 14.4871 33.7347 15.2974C33.7696 15.3359 33.8144 15.364 33.8643 15.3787C33.9142 15.3934 33.9671 15.394 34.0173 15.3805C35.1325 15.1434 36.2039 14.7339 37.1929 14.1668C36.7957 15.3854 35.9914 16.4303 34.9151 17.1263C35.9646 17.0096 36.9904 16.735 37.9577 16.3116L37.4091 17.1263C36.8324 17.8344 36.1675 18.4657 35.4306 19.0051C35.4031 19.0228 35.3809 19.0476 35.3663 19.0768C35.3517 19.1061 35.3452 19.1387 35.3474 19.1713C35.3794 19.9818 35.346 20.7936 35.2477 21.5988C35.0359 23.2815 34.5589 24.9201 33.8344 26.4536C33.1005 28.0431 32.1058 29.4986 30.8916 30.7598C28.8673 32.8716 26.2546 34.3256 23.3931 34.933C22.3927 35.1503 21.374 35.2728 20.3505 35.2988C17.2777 35.4038 14.2436 34.5874 11.6384 32.9545L11.5054 32.8714C13.349 33.0702 15.2131 32.8015 16.9255 32.0899C17.8541 31.7185 18.7269 31.2205 19.5192 30.6102Z" fill="white"/>
</g>
<defs>
<clipPath id="clip0_282_871">
<rect width="48" height="48" fill="white" transform="translate(0 0.5)"/>
</clipPath>
</defs>
</svg>
